/* XPM */
static char *_5abc6a3be6a48c7d416823b2c7800d5[] = {
/* columns rows colors chars-per-pixel */
"143 100 2 1 ",
"  c gray100",
". c None",
/* pixels */
"....................................................                           ...........                                                     ",
"...................................................                           ............                         ..                          ",
"..................................................                           .............                        ...                          ",
".................................................                           ..............                       ....                          ",
"................................................                           ...............                      .....                          ",
"...............................................                           ................                     ......                          ",
"..............................................                           .................                    .......                          ",
".............................................                           ..................                   ........                          ",
"............................................                           ...................                  .........                          ",
"...........................................                           ....................                 ..........                          ",
"..........................................                           .....................                ...........                          ",
".........................................                           ......................               ............                          ",
"........................................                           .......................              .............                          ",
".......................................                           ........................             ..............                          ",
"......................................                           .........................            ...............                          ",
".....................................                           ..........................           ................                          ",
"....................................                           ...........................          .................                          ",
"...................................                           ............................         ..................                          ",
"..................................                           .............................        ...................                          ",
".................................                           ..............................       ....................                          ",
"................................                           ...............................      .....................                          ",
"...............................                           ................................     ......................                          ",
"..............................                           .................................    .......................                          ",
".............................                           ..................................   ........................                          ",
"............................                           ...................................  .........................                          ",
"...........................                           .................................... ..........................                          ",
"..........................                           ...............................................................                           ",
".........................                           ...............................................................                           .",
"........................                           ...............................................................                           ..",
".......................                           ...............................................................                           ...",
"......................                           ...............................................................                           ....",
".....................                           ...............................................................                           .....",
"....................                           ...............................................................                           ......",
"...................                           ...............................................................                           .......",
"..................                           ...............................................................                           ........",
".................                           ...............................................................                           .........",
"................                           ...............................................................                           ..........",
"...............                           ...............................................................                           ...........",
"..............                           ...............................................................                           ............",
".............                           ...............................................................                           .............",
"............                           ...............................................................                           ..............",
"...........                           ...............................................................                           ...............",
"..........                           ...............................................................                           ................",
".........                           ...............................................................                           .................",
"........                           ...............................................................                           ..................",
".......                           ...............................................................                           ...................",
"......                           ...............................................................                           ....................",
".....                           ...............................................................                           .....................",
"....                           ...............................................................                           ......................",
"...                           ...............................................................                           .......................",
"..                           ...............................................................                           ........................",
".                          ................................................................                           .........................",
"                            .                                                 ............                           ..........................",
"                                                                               ...........                           ......................... ",
"                                                                               ...........                           ........................  ",
"                                                                               ...........                           .......................   ",
"                                                                               ...........                           ......................    ",
"                                                                               ...........                           .....................     ",
"                                                                               ...........                           ....................      ",
"                                                                               ...........                           ...................       ",
"                                                                               ...........                           ..................        ",
"                                                                               ...........                           .................         ",
"                                                                               ...........                           ................          ",
"                                                                               ...........                           ...............           ",
"                                                                               ...........                           ..............            ",
"                                                                               ...........                           .............             ",
"                                                                               ...........                           ............              ",
"                                                                               ...........                           ...........               ",
"                                                                               ...........                           ..........                ",
"                                                                               ...........                           .........                 ",
"                                                                               ...........                           ........                  ",
"                                                                               ...........                           .......                   ",
"                                                                               ...........                           ......                    ",
"                                                                               ...........                           .....                     ",
".....................................................                          ...........                           ....                      ",
".....................................................                          ...........                           ...                       ",
".....................................................                          ...........                           ..                        ",
".....................................................                          ...........                           .                         ",
".....................................................                          ...........                                                     ",
".....................................................                          ................................................................",
".....................................................                          ................................................................",
".....................................................                          ................................................................",
".....................................................                          ................................................................",
".....................................................                          ................................................................",
".....................................................                          ................................................................",
".....................................................                          ................................................................",
".....................................................                          ................................................................",
".....................................................                          ................................................................",
".....................................................                          ................................................................",
".....................................................                          ................................................................",
".....................................................                          ................................................................",
".....................................................                          ................................................................",
".....................................................                          ................................................................",
".....................................................                          ................................................................",
".....................................................                          ................................................................",
".....................................................                          ................................................................",
".....................................................                          ................................................................",
".....................................................                          ................................................................",
".....................................................                          ................................................................",
".....................................................                          ................................................................"
};
